<?xml version="1.0" encoding="utf-8"?>
<!-- Generator: Adobe Illustrator 21.0.2, SVG Export Plug-In . SVG Version: 6.00 Build 0)  -->
<svg version="1.1" id="Ebene_1" xmlns="http://www.w3.org/2000/svg" xmlns:xlink="http://www.w3.org/1999/xlink" x="0px" y="0px"
	 viewBox="0 0 76 25.7" style="enable-background:new 0 0 76 25.7;" xml:space="preserve">
<path d="M72.7,17.8h-2.8l-1.4-4.4c-0.2-0.7-0.4-1.4-0.6-2.2h0c-0.2,0.9-0.4,1.7-0.7,2.5l-1.3,4.1h-2.6l-3-9.9h2.8l1.1,3.8
	c0.3,1,0.5,2,0.8,3h0c0.2-1.1,0.4-2,0.7-2.9l1.2-3.9h2.5l1.2,3.8c0.4,1.1,0.6,2,0.8,3h0c0.2-1,0.4-1.9,0.7-2.9l1.1-3.9h2.6
	L72.7,17.8z"/>
<path d="M54.9,18c-2.8,0-4.6-1.5-4.6-5c0-3.1,2.1-5.3,5.1-5.3c2.8,0,4.6,1.6,4.6,5C60,15.7,57.9,18,54.9,18z M55.2,9.8
	c-1.1,0-2.3,0.9-2.3,2.9c0,2,0.7,3.1,2.2,3.1c1.3,0,2.2-1,2.2-3C57.4,10.8,56.7,9.8,55.2,9.8z"/>
<path d="M46.3,17.8V5.2c-0.5-0.1-0.9-0.1-1.4-0.1c-1.4,0-2.1,0.6-2.1,1.9v0.8h2.2v2h-2.2v8h-2.5v-8h-1.7v-2h1.7v-1
	c0-2.3,1.4-3.9,4.9-3.9c1,0,2.4,0.1,3.7,0.3v14.4H46.3z"/>
<path d="M37.7,13.2h-6.2c0,1.9,0.9,2.8,2.7,2.8c1,0,2-0.2,2.9-0.6l0.2,2c-1.1,0.4-2.3,0.6-3.6,0.6c-3.2,0-4.9-1.6-4.9-5.1
	c0-3,1.7-5.3,4.7-5.3c2.9,0,4.2,2,4.2,4.4C37.8,12.4,37.7,12.8,37.7,13.2z M33.5,9.5c-1.1,0-1.8,0.8-1.9,2h3.7
	C35.3,10.2,34.6,9.5,33.5,9.5z"/>
<path d="M22.5,17.9c-0.5,0-0.9,0-1.3-0.1v4.8h-2.6V7.8H21c0,0.5,0,1.1-0.1,1.7h0c0.6-1.2,1.6-1.9,3.1-1.9c2.4,0,3.6,1.7,3.6,4.6
	C27.7,15.7,25.9,17.9,22.5,17.9z M23.3,9.7c-1.3,0-2.1,1.6-2.1,3.3v2.8c0.4,0.1,0.8,0.2,1.3,0.2c1.4,0,2.5-0.9,2.5-3.4
	C25,10.7,24.5,9.7,23.3,9.7z"/>
<path d="M13.5,18.7c-1.2,3.1-2.2,4-4.5,4c-0.4,0-1-0.1-1.4-0.2l0.2-2.2c0.5,0.1,0.9,0.2,1.4,0.2c0.8,0,1.4-0.4,1.9-1.9l0.3-1
	L7.7,7.8h2.8l1.3,3.8c0.3,0.9,0.6,1.8,0.8,2.7h0c0.2-0.9,0.6-2.2,1-3.2l1.2-3.4h2.7L13.5,18.7z"/>
<path d="M4.8,18C2.6,18,2,17.2,2,14.8v-5H0.2v-2h1.7V4.8l2.6-0.7v3.7h2.4v2H4.5v4.4c0,1.3,0.3,1.6,1.2,1.6c0.4,0,0.9-0.1,1.2-0.2
	v2.1C6.3,17.9,5.5,18,4.8,18z"/>
</svg>
